<?xml version="1.0" encoding="UTF-8" standalone="no"?>
<svg
   xmlns:dc="http://purl.org/dc/elements/1.1/"
   xmlns:cc="http://creativecommons.org/ns#"
   xmlns:rdf="http://www.w3.org/1999/02/22-rdf-syntax-ns#"
   xmlns:svg="http://www.w3.org/2000/svg"
   xmlns="http://www.w3.org/2000/svg"
   xmlns:sodipodi="http://sodipodi.sourceforge.net/DTD/sodipodi-0.dtd"
   xmlns:inkscape="http://www.inkscape.org/namespaces/inkscape"
   width="170"
   height="187.244"
   viewBox="0 0 170 187.244"
   fill="none"
   version="1.1"
   id="svg991"
   sodipodi:docname="mycroft.svg"
   inkscape:version="1.0.2 (e86c870879, 2021-01-15)">
  <metadata
     id="metadata997">
    <rdf:RDF>
      <cc:Work
         rdf:about="">
        <dc:format>image/svg+xml</dc:format>
        <dc:type
           rdf:resource="http://purl.org/dc/dcmitype/StillImage" />
        <dc:title></dc:title>
      </cc:Work>
    </rdf:RDF>
  </metadata>
  <defs
     id="defs995" />
  <sodipodi:namedview
     pagecolor="#ffffff"
     bordercolor="#666666"
     borderopacity="1"
     objecttolerance="10"
     gridtolerance="10"
     guidetolerance="10"
     inkscape:pageopacity="0"
     inkscape:pageshadow="2"
     inkscape:window-width="1920"
     inkscape:window-height="1012"
     id="namedview993"
     showgrid="false"
     fit-margin-top="0"
     fit-margin-left="0"
     fit-margin-right="0"
     fit-margin-bottom="0"
     inkscape:zoom="2.1528662"
     inkscape:cx="85.167"
     inkscape:cy="126.5"
     inkscape:window-x="0"
     inkscape:window-y="0"
     inkscape:window-maximized="1"
     inkscape:current-layer="svg991" />
  <path
     d="M 42.5,20.3532 C 22.9052,31.6059 3.5506,46.8177 3.5506,46.8177 c 0,0 -3.5506,24.299 -3.5506,46.8044 0,22.5189 3.5506,46.8049 3.5506,46.8049 0,0 19.3679,15.198 38.9494,26.464 19.595,11.253 42.5,20.353 42.5,20.353 0.013,0 22.918,-9.087 42.5,-20.353 19.595,-11.253 38.949,-26.464 38.949,-26.464 0,0 3.551,-24.299 3.551,-46.8049 0,-22.5187 -3.551,-46.8044 -3.551,-46.8044 0,0 -19.368,-15.1985 -38.949,-26.4645 C 107.918,9.08721 85,0 85,0 85,0 62.095,9.08721 42.5,20.3532 Z"
     fill="#22a7f0"
     id="path965"
     style="stroke:#000000;stroke-width:3.77952756" />
  <path
     d="m 85,55.1342 c 21.317,0 38.669,17.2577 38.669,38.4878 0,21.23 -17.339,38.488 -38.669,38.488 -21.33,0 -38.669,-17.271 -38.669,-38.488 0,-21.2168 17.352,-38.4878 38.669,-38.4878 z m 0,-7.0014 c -25.241,0 -45.69,20.3665 -45.69,45.4759 0,25.1093 20.462,45.4763 45.69,45.4763 25.228,0 45.69,-20.367 45.69,-45.4763 0,-25.1094 -20.449,-45.4759 -45.69,-45.4759 z"
     fill="#ffffff"
     id="path967" />
  <path
     d="m 85,61.9766 c -17.553,0 -31.795,14.1622 -31.795,31.6458 0,17.4836 14.229,31.6456 31.795,31.6456 z"
     fill="#ffffff"
     id="path969" />
  <path
     d="m 85,36.4151 c 4.475,0 8.102,-3.6105 8.102,-8.0642 0,-4.4538 -3.627,-8.0643 -8.102,-8.0643 -4.475,0 -8.102,3.6105 -8.102,8.0643 0,4.4537 3.627,8.0642 8.102,8.0642 z"
     fill="#ffffff"
     id="path971" />
  <path
     d="M 18.9513,252 C 8.7334,252 0.428,243.733 0.428,233.563 c 0,-10.17 8.3054,-18.436 18.5233,-18.436 4.9485,0 9.6027,1.917 13.0937,5.404 0.561,0.56 0.561,1.451 0,2.01 -0.562,0.56 -1.458,0.56 -2.02,0 -2.9555,-2.941 -6.901,-4.565 -11.0737,-4.565 -8.6398,0 -15.6746,7.001 -15.6746,15.601 0,8.599 7.0348,15.601 15.6746,15.601 4.2262,0 8.1984,-1.651 11.1677,-4.646 0.548,-0.559 1.458,-0.559 2.019,-0.013 0.562,0.546 0.562,1.451 0.014,2.01 C 28.634,250.043 23.9533,252 18.9513,252 Z"
     fill="#ffffff"
     id="path973" />
  <path
     d="m 108.639,233.564 c 0,-4.925 -1.926,-9.558 -5.43,-13.032 -3.491,-3.475 -8.145,-5.391 -13.094,-5.391 -10.218,0 -18.523,8.266 -18.523,18.436 0,10.17 8.305,18.437 18.523,18.437 5.002,0 9.683,-1.957 13.187,-5.498 3.451,-3.488 5.337,-8.08 5.337,-12.952 z m -34.185,0 c 0,-8.599 7.035,-15.601 15.675,-15.601 4.186,0 8.118,1.624 11.074,4.566 2.955,2.941 4.587,6.855 4.587,11.021 0,4.114 -1.605,8.001 -4.507,10.943 -2.969,2.995 -6.928,4.645 -11.154,4.645 -8.653,0.027 -15.675,-6.975 -15.675,-15.574 z"
     fill="#ffffff"
     id="path975" />
  <path
     d="m -54.6337,252 c -0.7356,0 -1.3909,-0.453 -1.6584,-1.132 l -12.75901,-32.347 h -0.20061 c 0.06687,0.919 0.12037,1.997 0.16049,3.209 0.02675,1.211 0.0535,2.502 0.0535,3.873 v 24.999 c 0,0.772 -0.62859,1.385 -1.39092,1.385 -0.775708,0 -1.390922,-0.626 -1.390922,-1.385 v -32.586 c 0,-1.478 1.203682,-2.689 2.701592,-2.689 1.11006,0 2.11313,0.679 2.51435,1.704 l 12.02343,30.443 h 0.1337 l 12.184,-30.483 c 0.4012,-0.999 1.3775,-1.664 2.4608,-1.664 1.4578,0 2.6481,1.171 2.6481,2.635 v 32.547 c 0,0.825 -0.6687,1.491 -1.4979,1.491 -0.8292,0 -1.4979,-0.666 -1.4979,-1.491 v -25.212 c 0,-1.158 0.0134,-2.343 0.0535,-3.541 0.0401,-1.198 0.0802,-2.276 0.1605,-3.235 h -0.1605 l -12.866,32.361 c -0.2809,0.679 -0.9362,1.118 -1.6718,1.118 z"
     fill="#ffffff"
     id="path977" />
  <path
     d="m -16.2097,234.961 10.1109,-18.849 c 0.2541,-0.466 0.749,-0.758 1.2705,-0.758 1.0967,0 1.7922,1.171 1.2706,2.129 l -11.114,20.367 v 12.686 c 0,0.825 -0.6687,1.491 -1.4979,1.491 -0.8292,0 -1.4979,-0.666 -1.4979,-1.491 v -12.473 l -11.221,-20.566 c -0.5216,-0.959 0.1739,-2.13 1.2706,-2.13 0.5349,0 1.0298,0.293 1.2705,0.759 z"
     fill="#ffffff"
     id="path979" />
  <path
     d="m 51.237,215.34 c 4.4,0 7.717,0.772 9.937,2.317 2.22,1.544 3.33,4.126 3.33,7.747 0,2.809 -0.749,4.992 -2.247,6.576 -1.498,1.57 -3.357,2.702 -5.604,3.394 l 8.72,14.337 c 0.615,1.011 -0.12,2.289 -1.297,2.289 -0.535,0 -1.03,-0.279 -1.311,-0.745 l -8.947,-15.069 h -8.774 v 14.323 c 0,0.826 -0.668,1.491 -1.498,1.491 -0.829,0 -1.497,-0.665 -1.497,-1.491 V 215.34 Z m -0.254,2.676 h -5.925 v 15.614 h 6.968 c 2.996,0 5.309,-0.705 6.941,-2.103 1.632,-1.398 2.447,-3.408 2.447,-6.003 0,-2.809 -0.855,-4.753 -2.554,-5.857 -1.712,-1.105 -4.333,-1.651 -7.877,-1.651 z"
     fill="#ffffff"
     id="path981" />
  <path
     d="m 119.766,252 c -0.829,0 -1.498,-0.665 -1.498,-1.491 V 215.34 h 18.885 c 0.735,0 1.337,0.599 1.337,1.331 0,0.733 -0.602,1.332 -1.337,1.332 h -15.889 v 15.095 h 14.966 c 0.736,0 1.337,0.599 1.337,1.331 0,0.732 -0.601,1.331 -1.337,1.331 h -14.966 v 14.736 c 0,0.839 -0.669,1.504 -1.498,1.504 z"
     fill="#ffffff"
     id="path983" />
  <path
     d="m 159.594,252 c -0.829,0 -1.497,-0.665 -1.497,-1.491 v -32.506 h -10.526 c -0.736,0 -1.337,-0.599 -1.337,-1.332 0,-0.732 0.601,-1.331 1.337,-1.331 h 24.047 c 0.736,0 1.337,0.599 1.337,1.331 0,0.733 -0.601,1.332 -1.337,1.332 h -10.526 v 32.506 c 0,0.826 -0.668,1.491 -1.498,1.491 z"
     fill="#ffffff"
     id="path985" />
  <path
     d="m 240.669,215.247 c 0.829,0 1.498,0.666 1.498,1.491 v 33.784 c 0,0.826 -0.669,1.491 -1.498,1.491 -0.829,0 -1.498,-0.665 -1.498,-1.491 v -33.784 c 0.014,-0.825 0.682,-1.491 1.498,-1.491 z"
     fill="#ffffff"
     id="path987" />
  <path
     d="m 227.95,251.068 -4.534,-11.687 h -15.273 l -4.654,11.741 c -0.214,0.545 -0.736,0.891 -1.324,0.891 -1.003,0 -1.685,-0.998 -1.324,-1.93 l 13.187,-33.545 c 0.307,-0.772 1.056,-1.291 1.899,-1.291 0.843,0 1.591,0.519 1.899,1.305 l 12.866,33.478 c 0.375,0.958 -0.348,1.983 -1.377,1.983 -0.602,-0.013 -1.151,-0.386 -1.365,-0.945 z m -5.47,-14.363 -4.948,-13.245 c -0.134,-0.479 -0.375,-1.238 -0.722,-2.263 -0.348,-1.025 -0.656,-1.93 -0.923,-2.715 -0.281,0.892 -0.562,1.784 -0.883,2.702 -0.321,0.918 -0.562,1.691 -0.776,2.33 l -5.109,13.191 z"
     fill="#ffffff"
     id="path989" />
</svg>
