<svg width="48" height="48" viewBox="0 0 48 48" fill="none" xmlns="http://www.w3.org/2000/svg">
<path d="M24.0468 14.962C19.0829 14.962 15.0556 19.0829 15.0556 23.9532C15.0556 28.9171 19.0829 32.9444 24.0468 32.9444C28.9171 32.9444 33.0381 28.9171 33.0381 23.9532C33.0381 19.0829 28.9171 14.962 24.0468 14.962ZM47.0868 22.5483L38.1893 18.1463L41.3737 8.68683C41.7483 7.46927 40.5307 6.25171 39.3132 6.62634L29.8537 9.81073L25.4517 0.913171C24.8898 -0.30439 23.1102 -0.30439 22.5483 0.913171L18.1463 9.81073L8.68683 6.62634C7.46927 6.25171 6.25171 7.46927 6.62634 8.68683L9.81073 18.1463L0.913171 22.5483C-0.30439 23.1102 -0.30439 24.8898 0.913171 25.4517L9.81073 29.8537L6.62634 39.3132C6.25171 40.5307 7.46927 41.7483 8.68683 41.3737L18.1463 38.1893L22.5483 47.0868C23.1102 48.3044 24.8898 48.3044 25.4517 47.0868L29.8537 38.1893L39.3132 41.3737C40.5307 41.7483 41.7483 40.5307 41.3737 39.3132L38.1893 29.8537L47.0868 25.4517C48.3044 24.8898 48.3044 23.1102 47.0868 22.5483ZM32.4761 32.4761C27.7932 37.159 20.2068 37.159 15.5239 32.4761C10.841 27.7932 10.841 20.2068 15.5239 15.5239C20.2068 10.841 27.7932 10.841 32.4761 15.5239C37.159 20.2068 37.159 27.7932 32.4761 32.4761Z" fill="#FEE255"/>
</svg>
